<?xml version="1.0" encoding="UTF-8"?>
<svg id="Capa_1" data-name="Capa 1" xmlns="http://www.w3.org/2000/svg" viewBox="0 0 58.43 47.51">
  <defs>
    <style>
      .cls-1 {
        fill: #fff;
        stroke: #fff;
        stroke-linecap: round;
        stroke-linejoin: round;
        stroke-width: 1.92px;
      }

      .cls-2 {
        fill: #a3d0a2;
      }

      .cls-3 {
        fill: #1e3d83;
      }
    </style>
  </defs>
  <g>
    <path class="cls-2" d="M47.83,30.71l-3.59-27.74c-.61-3.91-3.33-4-4.02-.08,0,0-4.28,30.81-4.87,30.81-.55,0-3.72-9.04-4.76-12.74-.8-2.86-2.53-2.34-3.19.14-1.97,6.2-3.02,11.37-4.75,18L17.95,2.97c-.61-3.91-3.33-4-4.02-.08l-3.34,27.18c-.32.8-9.51,1.72-9.51,3.01,0,1.91,11.1,1.9,12.5.96.42-.29.75-1.05.9-1.82l1.4-18.99,4.36,31.3c.75,3.68,3.04,4.07,3.96.47,1.98-7.8,2.73-10.77,4.85-18.6.41,1.92,3.18,11.93,6.4,11.93,2.4,0,3.48-3.81,3.63-4.58l3.13-21.47,2.05,20.46s.2,1.97,3.13,1.97c1.85,0,9.76-.39,9.76-1.61,0-1.93-8.08-1.78-9.33-2.38"/>
    <g>
      <path class="cls-2" d="M37.14,3.36h0c-.62,0-1.12-.51-1.12-1.15s.5-1.15,1.12-1.15h0c.62,0,1.12.51,1.12,1.15s-.5,1.15-1.12,1.15Z"/>
      <path class="cls-2" d="M33.13,3.36h0c-.62,0-1.12-.51-1.12-1.15s.5-1.15,1.12-1.15h0c.62,0,1.12.51,1.12,1.15s-.5,1.15-1.12,1.15Z"/>
      <path class="cls-2" d="M29.13,3.36h0c-.62,0-1.12-.51-1.12-1.15s.5-1.15,1.12-1.15h0c.62,0,1.12.51,1.12,1.15s-.5,1.15-1.12,1.15Z"/>
      <path class="cls-2" d="M25.12,3.36h0c-.62,0-1.12-.51-1.12-1.15s.5-1.15,1.12-1.15h0c.62,0,1.12.51,1.12,1.15s-.5,1.15-1.12,1.15Z"/>
      <path class="cls-2" d="M21.12,3.36h0c-.62,0-1.12-.51-1.12-1.15s.5-1.15,1.12-1.15h0c.62,0,1.12.51,1.12,1.15s-.5,1.15-1.12,1.15Z"/>
    </g>
  </g>
  <g>
    <path class="cls-1" d="M4.24,20.52c.18,0,.35.04.49.11.15.07.3.19.45.35l.11.12.9-.88-.09-.11c-.48-.59-1.11-.89-1.89-.89-.44,0-.84.1-1.2.29-.35.19-.63.46-.83.79-.2.33-.3.7-.3,1.1,0,.43.1.78.31,1.04.2.26.53.5.99.72.34.17.57.31.69.44.11.12.16.27.16.47,0,.28-.08.49-.24.66-.16.16-.37.24-.64.24-.22,0-.42-.04-.58-.13-.17-.09-.35-.23-.53-.42l-.11-.11-.96.88.09.11c.53.65,1.22.97,2.06.97.48,0,.92-.11,1.31-.31.38-.21.69-.5.91-.87.22-.37.32-.78.32-1.22s-.11-.83-.34-1.12c-.22-.28-.55-.53-.99-.76-.43-.21-.61-.34-.68-.42-.09-.1-.14-.22-.14-.38,0-.21.06-.37.2-.51.13-.13.31-.2.53-.2Z"/>
    <path class="cls-1" d="M9.73,24.48c-.22.16-.4.28-.55.36-.14.07-.29.1-.45.1s-.68,0-.68-1.17c0-.52.05-1.03.16-1.54.1-.5.27-.92.5-1.25.21-.31.47-.46.79-.46.27,0,.52.12.76.36l.11.11.9-.9-.09-.11c-.21-.24-.46-.44-.72-.57-.27-.13-.59-.2-.94-.2-.69,0-1.27.22-1.75.66-.47.43-.82.99-1.04,1.67-.22.67-.33,1.39-.33,2.16,0,.82.19,1.47.56,1.91.38.45.89.68,1.53.68.7,0,1.35-.27,1.93-.82l.1-.09-.65-1.01-.13.1Z"/>
    <polygon class="cls-1" points="11.06 26.15 12.67 26.15 13.63 19.37 12.01 19.37 11.06 26.15"/>
    <polygon class="cls-1" points="17.95 20.64 18.33 19.37 14.74 19.37 13.79 26.15 17.35 26.15 17.54 24.86 15.59 24.86 15.8 23.33 17.38 23.33 17.57 22.07 15.98 22.07 16.18 20.64 17.95 20.64"/>
    <path class="cls-1" d="M21.69,22.36c-.04.28-.07.54-.08.79l-.59-3.77h-1.86l-.95,6.78h1.46l.35-2.66c.05-.38.08-.77.11-1.15l.6,3.81h1.85l.95-6.78h-1.45l-.4,2.98Z"/>
    <path class="cls-1" d="M27.25,24.48c-.22.16-.4.28-.55.36-.14.07-.29.1-.45.1s-.68,0-.68-1.17c0-.52.05-1.03.16-1.54.1-.5.27-.92.5-1.25.21-.31.47-.46.79-.46.27,0,.52.12.76.36l.11.11.9-.9-.09-.11c-.21-.24-.46-.44-.72-.57-.27-.13-.59-.2-.94-.2-.69,0-1.27.22-1.75.66-.47.43-.82.99-1.04,1.67-.22.67-.33,1.39-.33,2.16,0,.82.19,1.47.56,1.91.38.45.89.68,1.53.68.7,0,1.35-.27,1.93-.82l.1-.09-.65-1.01-.13.1Z"/>
    <polygon class="cls-1" points="32.75 20.64 33.13 19.37 29.54 19.37 28.59 26.15 32.15 26.15 32.34 24.86 30.38 24.86 30.6 23.33 32.18 23.33 32.36 22.07 30.77 22.07 30.97 20.64 32.75 20.64"/>
    <path class="cls-1" d="M35.7,19.37h-1.74l-.95,6.78h1.61l.32-2.22h.27c.58,0,1.08-.12,1.48-.36.4-.24.71-.56.91-.96.2-.39.3-.84.3-1.32,0-.62-.2-1.1-.58-1.43-.38-.32-.92-.49-1.61-.49ZM35.22,22.64h-.11l.28-2h.2c.24,0,.41.05.5.14.1.09.14.26.14.51,0,.4-.08.74-.24,1-.15.24-.4.35-.78.35Z"/>
    <polygon class="cls-1" points="41.54 23.33 41.72 22.07 40.13 22.07 40.33 20.64 42.11 20.64 42.49 19.37 38.89 19.37 37.94 26.15 41.51 26.15 41.69 24.86 39.74 24.86 39.96 23.33 41.54 23.33"/>
    <path class="cls-1" d="M44.36,19.37l-2.51,6.56-.08.21h1.69l.47-1.47h1.21l.07,1.47h1.66l-.69-6.78h-1.83ZM45.08,23.4h-.75l.65-2.07.1,2.07Z"/>
    <polygon class="cls-1" points="53.09 19.37 51.39 19.37 49.6 21.99 49.97 19.37 48.35 19.37 47.4 26.15 49.01 26.15 49.44 23.11 50.5 26.15 52.26 26.15 50.91 22.56 53.09 19.37"/>
    <path class="cls-1" d="M55.61,22.02c-.43-.21-.61-.34-.68-.42-.09-.09-.14-.22-.14-.38,0-.21.07-.37.2-.51.13-.13.31-.2.53-.2.18,0,.35.04.49.11.15.07.3.19.45.35l.11.12.89-.88-.09-.11c-.48-.59-1.11-.89-1.89-.89-.44,0-.84.1-1.2.29-.35.19-.63.46-.83.79-.2.33-.3.7-.3,1.1,0,.42.1.78.31,1.04.2.26.53.5.99.72.34.16.57.31.69.44.11.12.16.27.16.47,0,.28-.08.49-.24.66-.16.16-.37.24-.64.24-.22,0-.42-.04-.58-.13-.17-.09-.35-.23-.53-.42l-.11-.11-.96.88.09.11c.53.65,1.22.97,2.06.97.48,0,.93-.11,1.31-.31.38-.21.69-.5.9-.87s.32-.77.32-1.22-.11-.83-.34-1.12c-.22-.28-.55-.53-.99-.76Z"/>
  </g>
  <g>
    <path class="cls-3" d="M4.24,20.52c.18,0,.35.04.49.11.15.07.3.19.45.35l.11.12.9-.88-.09-.11c-.48-.59-1.11-.89-1.89-.89-.44,0-.84.1-1.2.29-.35.19-.63.46-.83.79-.2.33-.3.7-.3,1.1,0,.43.1.78.31,1.04.2.26.53.5.99.72.34.17.57.31.69.44.11.12.16.27.16.47,0,.28-.08.49-.24.66-.16.16-.37.24-.64.24-.22,0-.42-.04-.58-.13-.17-.09-.35-.23-.53-.42l-.11-.11-.96.88.09.11c.53.65,1.22.97,2.06.97.48,0,.92-.11,1.31-.31.38-.21.69-.5.91-.87.22-.37.32-.78.32-1.22s-.11-.83-.34-1.12c-.22-.28-.55-.53-.99-.76-.43-.21-.61-.34-.68-.42-.09-.1-.14-.22-.14-.38,0-.21.06-.37.2-.51.13-.13.31-.2.53-.2Z"/>
    <path class="cls-3" d="M9.73,24.48c-.22.16-.4.28-.55.36-.14.07-.29.1-.45.1s-.68,0-.68-1.17c0-.52.05-1.03.16-1.54.1-.5.27-.92.5-1.25.21-.31.47-.46.79-.46.27,0,.52.12.76.36l.11.11.9-.9-.09-.11c-.21-.24-.46-.44-.72-.57-.27-.13-.59-.2-.94-.2-.69,0-1.27.22-1.75.66-.47.43-.82.99-1.04,1.67-.22.67-.33,1.39-.33,2.16,0,.82.19,1.47.56,1.91.38.45.89.68,1.53.68.7,0,1.35-.27,1.93-.82l.1-.09-.65-1.01-.13.1Z"/>
    <polygon class="cls-3" points="11.06 26.15 12.67 26.15 13.63 19.37 12.01 19.37 11.06 26.15"/>
    <polygon class="cls-3" points="17.95 20.64 18.33 19.37 14.74 19.37 13.79 26.15 17.35 26.15 17.54 24.86 15.59 24.86 15.8 23.33 17.38 23.33 17.57 22.07 15.98 22.07 16.18 20.64 17.95 20.64"/>
    <path class="cls-3" d="M21.69,22.36c-.04.28-.07.54-.08.79l-.59-3.77h-1.86l-.95,6.78h1.46l.35-2.66c.05-.38.08-.77.11-1.15l.6,3.81h1.85l.95-6.78h-1.45l-.4,2.98Z"/>
    <path class="cls-3" d="M27.25,24.48c-.22.16-.4.28-.55.36-.14.07-.29.1-.45.1s-.68,0-.68-1.17c0-.52.05-1.03.16-1.54.1-.5.27-.92.5-1.25.21-.31.47-.46.79-.46.27,0,.52.12.76.36l.11.11.9-.9-.09-.11c-.21-.24-.46-.44-.72-.57-.27-.13-.59-.2-.94-.2-.69,0-1.27.22-1.75.66-.47.43-.82.99-1.04,1.67-.22.67-.33,1.39-.33,2.16,0,.82.19,1.47.56,1.91.38.45.89.68,1.53.68.7,0,1.35-.27,1.93-.82l.1-.09-.65-1.01-.13.1Z"/>
    <polygon class="cls-3" points="32.75 20.64 33.13 19.37 29.54 19.37 28.59 26.15 32.15 26.15 32.34 24.86 30.38 24.86 30.6 23.33 32.18 23.33 32.36 22.07 30.77 22.07 30.97 20.64 32.75 20.64"/>
    <path class="cls-3" d="M35.7,19.37h-1.74l-.95,6.78h1.61l.32-2.22h.27c.58,0,1.08-.12,1.48-.36.4-.24.71-.56.91-.96.2-.39.3-.84.3-1.32,0-.62-.2-1.1-.58-1.43-.38-.32-.92-.49-1.61-.49ZM35.22,22.64h-.11l.28-2h.2c.24,0,.41.05.5.14.1.09.14.26.14.51,0,.4-.08.74-.24,1-.15.24-.4.35-.78.35Z"/>
    <polygon class="cls-3" points="41.54 23.33 41.72 22.07 40.13 22.07 40.33 20.64 42.11 20.64 42.49 19.37 38.89 19.37 37.94 26.15 41.51 26.15 41.69 24.86 39.74 24.86 39.96 23.33 41.54 23.33"/>
    <path class="cls-3" d="M44.36,19.37l-2.51,6.56-.08.21h1.69l.47-1.47h1.21l.07,1.47h1.66l-.69-6.78h-1.83ZM45.08,23.4h-.75l.65-2.07.1,2.07Z"/>
    <polygon class="cls-3" points="53.09 19.37 51.39 19.37 49.6 21.99 49.97 19.37 48.35 19.37 47.4 26.15 49.01 26.15 49.44 23.11 50.5 26.15 52.26 26.15 50.91 22.56 53.09 19.37"/>
    <path class="cls-3" d="M55.61,22.02c-.43-.21-.61-.34-.68-.42-.09-.09-.14-.22-.14-.38,0-.21.07-.37.2-.51.13-.13.31-.2.53-.2.18,0,.35.04.49.11.15.07.3.19.45.35l.11.12.89-.88-.09-.11c-.48-.59-1.11-.89-1.89-.89-.44,0-.84.1-1.2.29-.35.19-.63.46-.83.79-.2.33-.3.7-.3,1.1,0,.42.1.78.31,1.04.2.26.53.5.99.72.34.16.57.31.69.44.11.12.16.27.16.47,0,.28-.08.49-.24.66-.16.16-.37.24-.64.24-.22,0-.42-.04-.58-.13-.17-.09-.35-.23-.53-.42l-.11-.11-.96.88.09.11c.53.65,1.22.97,2.06.97.48,0,.93-.11,1.31-.31.38-.21.69-.5.9-.87s.32-.77.32-1.22-.11-.83-.34-1.12c-.22-.28-.55-.53-.99-.76Z"/>
  </g>
</svg>